<svg xmlns="http://www.w3.org/2000/svg" fill="none" viewBox="0 0 200 200" height="200" width="200">
  
  <circle fill="#0f172a" r="92" cy="100" cx="100"></circle>

  
  <path fill="#f8fafc" d="M38 108 L65 88 L105 83 L145 73 L175 88 L165 105 L145 115 L120 118 L80 125 L55 120 Z"></path>
  
  
  <path stroke-linecap="round" stroke-width="3.5" stroke="#0f172a" d="M78 93 L85 93 M92 93 L99 93 M106 93 L113 93 M120 93 L127 93"></path>
  
  
  <ellipse fill="#e2e8f0" ry="7" rx="12" cy="115" cx="115"></ellipse>
  
  
  <path fill="#f8fafc" d="M55 105 L48 88 L55 80 Z"></path>

  
  <path stroke-linecap="round" stroke-width="24" stroke="#fbbf24" fill="none" d="M125 130 Q138 155 148 158"></path>
  
  
  <circle fill="#ef4444" r="19.5" cy="68" cx="68"></circle>
  <text font-weight="900" text-anchor="middle" fill="#ffffff" font-size="21" font-family="Arial Black, sans-serif" y="76" x="68">$</text>
</svg>
